<?xml version="1.0" standalone="no"?>
<!DOCTYPE svg PUBLIC "-//W3C//DTD SVG 20010904//EN"
 "http://www.w3.org/TR/2001/REC-SVG-20010904/DTD/svg10.dtd">
<svg version="1.0" xmlns="http://www.w3.org/2000/svg"
 width="186.000000pt" height="50.000000pt" viewBox="0 0 186.000000 50.000000"
 preserveAspectRatio="xMidYMid meet">

<g transform="translate(0.000000,50.000000) scale(0.100000,-0.100000)"
fill="#000000" stroke="none">
<path d="M180 400 c0 -5 5 -10 10 -10 6 0 10 5 10 10 0 6 -4 10 -10 10 -5 0
-10 -4 -10 -10z"/>
<path d="M300 400 c0 -5 5 -10 11 -10 5 0 7 5 4 10 -3 6 -8 10 -11 10 -2 0 -4
-4 -4 -10z"/>
<path d="M236 374 c-26 -27 -35 -54 -17 -54 6 0 18 14 28 30 9 17 21 30 25 30
4 0 8 5 8 10 0 17 -16 11 -44 -16z"/>
<path d="M340 390 c0 -5 5 -10 10 -10 6 0 10 5 10 10 0 6 -4 10 -10 10 -5 0
-10 -4 -10 -10z"/>
<path d="M165 343 c1 -21 3 -46 4 -55 0 -10 8 -18 17 -18 12 0 14 5 9 18 -4 9
-9 33 -10 51 -1 19 -6 36 -12 38 -6 2 -9 -12 -8 -34z"/>
<path d="M274 349 c-6 -11 -9 -10 54 -14 36 -2 50 1 43 8 -12 12 -90 17 -97 6z"/>
<path d="M105 320 c-3 -5 -1 -10 4 -10 6 0 11 5 11 10 0 6 -2 10 -4 10 -3 0
-8 -4 -11 -10z"/>
<path d="M390 320 c0 -5 5 -10 10 -10 6 0 10 5 10 10 0 6 -4 10 -10 10 -5 0
-10 -4 -10 -10z"/>
<path d="M336 313 c-11 -11 -7 -23 8 -23 8 0 26 -14 41 -31 28 -34 46 -34 23
0 -20 28 -64 62 -72 54z"/>
<path d="M420 290 c0 -5 5 -10 10 -10 6 0 10 5 10 10 0 6 -4 10 -10 10 -5 0
-10 -4 -10 -10z"/>
<path d="M120 280 c0 -6 7 -13 15 -16 8 -4 15 -12 15 -20 0 -8 7 -14 15 -14 9
0 18 -7 21 -15 7 -17 34 -21 34 -5 0 6 -11 15 -24 20 -13 4 -32 20 -44 34 -21
27 -32 33 -32 16z"/>
<path d="M65 270 c-3 -5 -1 -10 4 -10 6 0 11 5 11 10 0 6 -2 10 -4 10 -3 0 -8
-4 -11 -10z"/>
<path d="M445 250 c3 -5 8 -10 11 -10 2 0 4 5 4 10 0 6 -5 10 -11 10 -5 0 -7
-4 -4 -10z"/>
<path d="M350 241 c0 -6 5 -13 10 -16 6 -3 10 -24 10 -46 0 -21 5 -39 10 -39
13 0 13 51 0 84 -9 25 -30 36 -30 17z"/>
<path d="M86 232 c-3 -6 -1 -14 5 -17 15 -10 25 3 12 16 -7 7 -13 7 -17 1z"/>
<path d="M420 206 c0 -9 5 -16 10 -16 6 0 10 4 10 9 0 6 -4 13 -10 16 -5 3
-10 -1 -10 -9z"/>
<path d="M120 190 c0 -5 7 -10 15 -10 8 0 15 5 15 10 0 6 -7 10 -15 10 -8 0
-15 -4 -15 -10z"/>
<path d="M324 184 c-4 -10 -19 -29 -32 -42 -18 -17 -22 -26 -14 -34 8 -8 13
-7 18 5 3 9 11 17 18 17 16 0 38 52 26 64 -6 6 -12 3 -16 -10z"/>
<path d="M256 181 c-4 -5 -27 -8 -52 -5 -33 3 -44 1 -41 -9 2 -6 12 -12 23
-12 10 0 24 -3 31 -8 6 -4 15 -3 18 3 4 6 15 8 26 5 13 -4 19 -2 19 9 0 18
-16 30 -24 17z"/>
<path d="M425 171 c-3 -5 -1 -12 5 -16 5 -3 10 1 10 9 0 18 -6 21 -15 7z"/>
<path d="M100 150 c0 -5 5 -10 10 -10 6 0 10 5 10 10 0 6 -4 10 -10 10 -5 0
-10 -4 -10 -10z"/>
<path d="M421 124 c0 -11 3 -14 6 -6 3 7 2 16 -1 19 -3 4 -6 -2 -5 -13z"/>
<path d="M140 120 c0 -5 5 -10 10 -10 6 0 10 5 10 10 0 6 -4 10 -10 10 -5 0
-10 -4 -10 -10z"/>
<path d="M356 122 c-3 -6 -1 -14 5 -17 15 -10 25 3 12 16 -7 7 -13 7 -17 1z"/>
<path d="M186 112 c-3 -6 -1 -14 5 -17 15 -10 25 3 12 16 -7 7 -13 7 -17 1z"/>
<path d="M230 105 c0 -9 5 -15 11 -13 6 2 11 8 11 13 0 5 -5 11 -11 13 -6 2
-11 -4 -11 -13z"/>
<path d="M330 80 c0 -5 5 -10 10 -10 6 0 10 5 10 10 0 6 -4 10 -10 10 -5 0
-10 -4 -10 -10z"/>
<path d="M295 60 c3 -5 8 -10 11 -10 2 0 4 5 4 10 0 6 -5 10 -11 10 -5 0 -7
-4 -4 -10z"/>
</g>
</svg>
