<?xml version="1.0" standalone="no"?>
<!DOCTYPE svg PUBLIC "-//W3C//DTD SVG 20010904//EN"
 "http://www.w3.org/TR/2001/REC-SVG-20010904/DTD/svg10.dtd">
<svg version="1.0" xmlns="http://www.w3.org/2000/svg"
 width="350.000000pt" height="350.000000pt" viewBox="0 0 350.000000 350.000000"
 preserveAspectRatio="xMidYMid meet">
<metadata>
Created by potrace 1.16, written by Peter Selinger 2001-2019
</metadata>
<g transform="translate(0.000000,350.000000) scale(0.100000,-0.100000)"
fill="#000000" stroke="none">
<path d="M1163 2823 c-17 -11 -23 -25 -23 -53 0 -45 27 -76 85 -96 35 -12 41
-11 67 7 37 27 40 86 6 115 -55 47 -96 55 -135 27z"/>
<path d="M1997 2808 c-16 -6 -30 -20 -33 -34 -21 -83 73 -167 145 -130 53 28
52 82 -2 134 -37 34 -71 44 -110 30z"/>
<path d="M1718 2760 c-9 -6 -24 -33 -33 -60 -9 -28 -24 -54 -34 -59 -9 -5 -45
-9 -79 -8 -83 3 -106 -19 -104 -96 1 -45 -3 -59 -23 -81 -13 -14 -34 -26 -45
-26 -32 0 -58 -17 -75 -50 -47 -90 28 -190 143 -190 44 0 57 4 77 26 21 23 25
37 25 94 0 74 2 78 72 113 36 18 45 30 58 69 19 61 42 77 107 78 44 0 55 4 73
28 51 64 -14 172 -104 172 -23 0 -49 -5 -58 -10z"/>
<path d="M2260 2750 c-11 -11 -20 -28 -20 -39 0 -29 42 -84 73 -94 37 -12 85
8 93 38 12 48 -49 115 -106 115 -11 0 -29 -9 -40 -20z"/>
<path d="M2527 2633 c-11 -11 -7 -77 6 -94 31 -40 84 -50 112 -19 36 40 -17
120 -80 120 -17 0 -35 -3 -38 -7z"/>
<path d="M1053 2605 c-60 -26 -67 -67 -23 -146 16 -30 30 -60 30 -67 0 -7 -18
-32 -40 -56 -35 -38 -40 -49 -40 -90 0 -43 5 -52 45 -94 56 -57 63 -81 41
-143 -22 -59 -15 -98 25 -144 72 -82 197 -64 215 32 10 52 -3 82 -57 134 -42
40 -49 53 -49 85 0 21 5 53 12 71 11 30 9 39 -20 96 -40 77 -40 94 -2 142 51
65 33 141 -43 176 -50 22 -53 22 -94 4z"/>
<path d="M2103 2470 c-18 -11 -33 -24 -33 -29 0 -24 -60 -22 -116 4 -53 24
-62 26 -96 14 -21 -7 -46 -21 -55 -31 -27 -30 -23 -89 10 -132 58 -76 135 -88
198 -31 44 39 69 43 129 19 26 -11 53 -14 78 -10 108 19 115 19 157 -11 67
-48 98 -57 133 -39 63 33 55 113 -18 174 -15 12 -81 11 -146 -3 -25 -6 -37 -1
-74 30 -41 34 -99 65 -124 65 -6 0 -26 -9 -43 -20z"/>
<path d="M2636 2245 c-60 -56 -1 -155 93 -155 100 0 90 131 -12 169 -41 16
-51 14 -81 -14z"/>
<path d="M2220 2143 c-31 -40 -24 -112 16 -154 40 -42 71 -57 123 -56 47 0 54
-5 125 -98 17 -23 49 -46 82 -61 59 -26 75 -46 94 -117 25 -94 120 -138 177
-81 53 54 9 160 -79 186 -50 15 -64 32 -83 103 -21 83 -59 120 -138 134 -69
12 -90 28 -117 87 -35 79 -155 113 -200 57z"/>
<path d="M2847 2032 c-45 -50 15 -152 89 -152 8 0 26 12 41 26 31 31 26 74
-14 116 -32 34 -90 39 -116 10z"/>
<path d="M3006 1774 c-35 -34 -8 -115 45 -133 47 -16 79 7 79 57 0 69 -82 119
-124 76z"/>
<path d="M2365 1678 c-24 -28 -27 -39 -22 -82 4 -43 10 -55 50 -92 52 -48 63
-78 50 -132 -11 -43 0 -94 28 -133 26 -37 24 -87 -5 -146 -31 -62 -26 -103 21
-149 28 -28 41 -34 78 -34 85 0 111 75 59 175 -28 56 -27 89 5 134 46 64 40
109 -23 180 -52 58 -60 79 -46 115 5 15 10 45 10 67 0 33 -7 46 -45 84 -39 40
-50 45 -89 45 -38 0 -48 -5 -71 -32z"/>
<path d="M530 1605 c-21 -7 -42 -24 -53 -43 -16 -27 -17 -36 -6 -65 14 -40 67
-77 111 -77 47 1 78 28 85 76 4 33 1 45 -21 71 -35 41 -71 53 -116 38z"/>
<path d="M2821 1464 c-43 -36 -43 -89 0 -139 26 -30 37 -35 73 -35 56 0 76 22
76 81 -1 50 -11 68 -60 98 -45 27 -52 26 -89 -5z"/>
<path d="M739 1351 c-88 -89 41 -229 152 -164 60 36 62 102 4 160 -28 28 -40
33 -80 33 -38 0 -52 -5 -76 -29z"/>
<path d="M2154 1312 c-36 -29 -45 -58 -39 -120 6 -49 4 -61 -15 -84 -12 -16
-27 -28 -34 -28 -30 0 -66 -43 -81 -94 -19 -64 -46 -91 -100 -100 -62 -10 -91
-25 -104 -52 -52 -114 85 -236 177 -159 21 17 33 38 37 67 5 26 18 53 35 70
24 23 37 28 80 28 44 0 56 4 81 29 27 27 29 35 29 101 0 62 3 74 25 95 13 14
33 25 44 25 53 0 79 103 45 175 -28 59 -132 86 -180 47z"/>
<path d="M1705 1260 c-11 -4 -34 -24 -51 -43 -40 -46 -74 -54 -133 -33 -58 20
-94 20 -134 -1 -55 -28 -108 -23 -163 17 -41 30 -57 35 -102 35 -48 0 -57 -4
-83 -33 -44 -49 -41 -102 9 -152 53 -53 92 -59 170 -26 57 24 65 25 95 13 17
-8 41 -24 52 -37 29 -33 69 -50 115 -50 34 0 48 7 86 42 52 48 93 54 151 24
40 -20 66 -20 103 -1 101 52 90 177 -20 233 -47 23 -63 26 -95 12z"/>
<path d="M2856 1159 c-30 -35 -32 -49 -12 -87 18 -35 46 -60 71 -62 51 -6 66
0 82 34 20 43 11 80 -29 118 -41 38 -79 37 -112 -3z"/>
<path d="M625 1067 c-36 -22 -45 -36 -45 -68 0 -39 42 -79 83 -79 33 0 77 40
77 70 0 22 -30 56 -68 78 -25 14 -22 14 -47 -1z"/>
<path d="M2812 887 c-34 -36 -30 -92 9 -128 38 -35 77 -38 107 -6 34 36 29 78
-14 121 -42 42 -72 45 -102 13z"/>
<path d="M897 866 c-16 -7 -36 -27 -44 -45 -14 -27 -14 -36 -2 -59 21 -43 50
-62 94 -61 58 0 78 19 78 73 0 52 -13 71 -61 92 -19 8 -35 14 -36 13 0 0 -14
-6 -29 -13z"/>
<path d="M2399 840 c-46 -27 -48 -115 -4 -162 32 -35 67 -44 106 -28 35 15 49
37 49 80 0 82 -89 147 -151 110z"/>
<path d="M1542 765 c-39 -17 -65 -69 -56 -114 4 -16 20 -43 36 -60 26 -26 38
-31 78 -31 42 0 52 4 75 32 73 86 -29 218 -133 173z"/>
<path d="M1213 754 c-59 -29 -67 -95 -19 -151 21 -24 32 -28 75 -28 73 0 96
28 92 112 -3 59 -87 98 -148 67z"/>
<path d="M2672 654 c-17 -12 -22 -25 -22 -58 0 -107 130 -137 146 -34 6 33 3
41 -29 73 -38 38 -61 43 -95 19z"/>
<path d="M2206 594 c-29 -30 -33 -62 -11 -104 31 -60 91 -77 139 -39 20 16 26
29 26 61 0 34 -6 46 -36 74 -44 42 -81 44 -118 8z"/>
<path d="M1941 431 c-28 -39 -27 -52 12 -95 59 -63 127 -42 127 41 0 51 -31
83 -82 83 -29 0 -41 -6 -57 -29z"/>
</g>
</svg>
